# xmcd CD database file
#
# Track frame offsets:
#	182
#	16385
#	28532
#	71807
#	114932
#	129257
#	152507
#	168262
#	178467
#	210557
#	234782
#	255482
#	271757
#	286982
#
# Disc length: 4006 seconds
#
# Revision: 0
# Processed by: cddbd v1.4PL0 Copyright (c) Steve Scherf et al.
# Submitted via: CDex 1.51
#
DISCID=b30fa40e
DTITLE=Various Artist - We Wish You A Merry Christmas D1
DYEAR=1993
DGENRE=Christmas
TTITLE0=Gregg Smith Singers - Joy To The World - Away In The Manger
TTITLE1=New York Symphony - The First Noel
TTITLE2=Württenberg Chamber Orchestra - L.Mozart--A Musical Sleigh Ride
TTITLE3=Württenberg Chamber Orchestra - Haydn--Toy Symphony
TTITLE4=New York Symphony - O Christmas Tree
TTITLE5=Royal Philharmonic - God Rest Ye Merry Gentelmen
TTITLE6=Royal Philharmonic - The Nutcracker--Overture
TTITLE7=Royal Philharmonic - The Nutcracker--Dance Of The Sugar Plum Fairy
TTITLE8=Royal Philharmonic - The Nutcracker--Waltz Of The Flowers
TTITLE9=Royal Philharmonic - The Nutcracker--Final Waltz and Apotheosis
TTITLE10=Royal Philharmonic - Silent Night
TTITLE11=New York Symphony - The Holly And The Ivy
TTITLE12=Royal Philharmonic - What Child Is This
TTITLE13=Royal Philharmonic - Deck The Halls
EXTD=YEAR: 1993
EXTT0=
EXTT1=
EXTT2=
EXTT3=
EXTT4=
EXTT5=
EXTT6=
EXTT7=
EXTT8=
EXTT9=
EXTT10=
EXTT11=
EXTT12=
EXTT13=
PLAYORDER=
